<?xml version="1.0" encoding="utf-8"?>
<!-- Generator: Adobe Illustrator 17.1.0, SVG Export Plug-In . SVG Version: 6.00 Build 0)  -->
<!DOCTYPE svg PUBLIC "-//W3C//DTD SVG 1.1//EN" "http://www.w3.org/Graphics/SVG/1.1/DTD/svg11.dtd">
<svg version="1.1" xmlns="http://www.w3.org/2000/svg" xmlns:xlink="http://www.w3.org/1999/xlink" x="0px" y="0px"
	 viewBox="0 0 162 162" enable-background="new 0 0 162 162" xml:space="preserve">
<g id="titles">
	<g>
		<g>
			<polygon points="2,11 0,11 0,0 11,0 11,2 2,2 			"/>
		</g>
		<g>
			<polygon points="11,162 0,162 0,151 2,151 2,160 11,160 			"/>
		</g>
		<g>
			<polygon points="162,162 151,162 151,160 160,160 160,151 162,151 			"/>
		</g>
		<g>
			<polygon points="162,11 160,11 160,2 151,2 151,0 162,0 			"/>
		</g>
	</g>
</g>
<g id="art">
	<g>
		<circle fill="#E4E5E7" cx="38.5" cy="143.5" r="7.5"/>
	</g>
	<g>
		<circle fill="#E4E5E7" cx="105.5" cy="24.5" r="11"/>
	</g>
	<g>
		<path d="M142,142H80V20h62V142z M82,140h58V22H82V140z"/>
	</g>
	<g>
		<path fill="#C4C4C4" d="M82,142H20V20h62V142z M22,140h58V22H22V140z"/>
	</g>
	<g>
		<g>
			<rect x="76" y="26.9" fill="#8F51CC" width="10" height="124.1"/>
		</g>
		<g>
			<polygon fill="#E4E5E7" points="76,26.9 81,11.1 86,26.9 			"/>
		</g>
		<g>
			<polygon fill="#8F51CC" points="78.5,19 81,11.1 83.5,19 			"/>
		</g>
	</g>
	<g>
		<circle fill="#8F51CC" cx="51" cy="46" r="15"/>
	</g>
	<g>
		<g>
			<rect x="50" y="41" width="2" height="10"/>
		</g>
		<g>
			<rect x="46" y="45" width="10" height="2"/>
		</g>
	</g>
	<g>
		<circle fill="#C4C4C4" cx="111" cy="116" r="15"/>
	</g>
	<g>
		<g>
			<rect x="106" y="115" width="10" height="2"/>
		</g>
	</g>
	<g>
		<g>
			<rect x="36" y="70" width="2" height="2"/>
		</g>
		<g>
			<rect x="41" y="70" width="25" height="2"/>
		</g>
	</g>
	<g>
		<g>
			<rect x="36" y="75" width="2" height="2"/>
		</g>
		<g>
			<rect x="41" y="75" width="25" height="2"/>
		</g>
	</g>
	<g>
		<g>
			<rect x="36" y="80" width="2" height="2"/>
		</g>
		<g>
			<rect x="41" y="80" width="25" height="2"/>
		</g>
	</g>
	<g>
		<g>
			<rect x="36" y="85" width="2" height="2"/>
		</g>
		<g>
			<rect x="41" y="85" width="25" height="2"/>
		</g>
	</g>
	<g>
		<g>
			<rect x="36" y="90" width="2" height="2"/>
		</g>
		<g>
			<rect x="41" y="90" width="25" height="2"/>
		</g>
	</g>
	<g>
		<g>
			<rect x="36" y="95" width="2" height="2"/>
		</g>
		<g>
			<rect x="41" y="95" width="25" height="2"/>
		</g>
	</g>
	<g>
		<g>
			<rect x="36" y="100" width="2" height="2"/>
		</g>
		<g>
			<rect x="41" y="100" width="25" height="2"/>
		</g>
	</g>
	<g>
		<g>
			<rect x="36" y="105" width="2" height="2"/>
		</g>
		<g>
			<rect x="41" y="105" width="25" height="2"/>
		</g>
	</g>
	<g>
		<g>
			<rect x="36" y="110" width="2" height="2"/>
		</g>
		<g>
			<rect x="41" y="110" width="25" height="2"/>
		</g>
	</g>
	<g>
		<g>
			<rect x="36" y="115" width="2" height="2"/>
		</g>
		<g>
			<rect x="41" y="115" width="25" height="2"/>
		</g>
	</g>
	<g>
		<g>
			<rect x="36" y="120" width="2" height="2"/>
		</g>
		<g>
			<rect x="41" y="120" width="25" height="2"/>
		</g>
	</g>
	<g>
		<g>
			<rect x="36" y="125" width="2" height="2"/>
		</g>
		<g>
			<rect x="41" y="125" width="25" height="2"/>
		</g>
	</g>
	<g>
		<g>
			<rect x="96" y="50" width="2" height="2"/>
		</g>
		<g>
			<rect x="101" y="50" width="25" height="2"/>
		</g>
	</g>
	<g>
		<g>
			<rect x="96" y="55" width="2" height="2"/>
		</g>
		<g>
			<rect x="101" y="55" width="25" height="2"/>
		</g>
	</g>
	<g>
		<g>
			<rect x="96" y="60" width="2" height="2"/>
		</g>
		<g>
			<rect x="101" y="60" width="25" height="2"/>
		</g>
	</g>
	<g>
		<g>
			<rect x="96" y="65" width="2" height="2"/>
		</g>
		<g>
			<rect x="101" y="65" width="25" height="2"/>
		</g>
	</g>
	<g>
		<g>
			<rect x="96" y="70" width="2" height="2"/>
		</g>
		<g>
			<rect x="101" y="70" width="25" height="2"/>
		</g>
	</g>
	<g>
		<g>
			<rect x="96" y="75" width="2" height="2"/>
		</g>
		<g>
			<rect x="101" y="75" width="25" height="2"/>
		</g>
	</g>
	<g>
		<g>
			<rect x="96" y="80" width="2" height="2"/>
		</g>
		<g>
			<rect x="101" y="80" width="25" height="2"/>
		</g>
	</g>
	<g>
		<g>
			<rect x="96" y="85" width="2" height="2"/>
		</g>
		<g>
			<rect x="101" y="85" width="25" height="2"/>
		</g>
	</g>
	<g>
		<g>
			
				<rect x="127.5" y="30" transform="matrix(0.7071 0.7071 -0.7071 0.7071 61.3249 -81.0513)" fill="#C4C4C4" width="2" height="7.1"/>
		</g>
		<g>
			
				<rect x="125" y="32.5" transform="matrix(0.7071 0.7071 -0.7071 0.7071 61.3249 -81.0513)" fill="#C4C4C4" width="7.1" height="2"/>
		</g>
	</g>
</g>
</svg>
