<?xml version="1.0" encoding="utf-8"?>
<!-- Generator: Adobe Illustrator 17.1.0, SVG Export Plug-In . SVG Version: 6.00 Build 0)  -->
<!DOCTYPE svg PUBLIC "-//W3C//DTD SVG 1.1//EN" "http://www.w3.org/Graphics/SVG/1.1/DTD/svg11.dtd">
<svg version="1.1" xmlns="http://www.w3.org/2000/svg" xmlns:xlink="http://www.w3.org/1999/xlink" x="0px" y="0px"
	 viewBox="0 0 162 162" enable-background="new 0 0 162 162" xml:space="preserve">
<g id="titles">
	<g>
		<g>
			<polygon points="2,11 0,11 0,0 11,0 11,2 2,2 			"/>
		</g>
		<g>
			<polygon points="11,162 0,162 0,151 2,151 2,160 11,160 			"/>
		</g>
		<g>
			<polygon points="162,162 151,162 151,160 160,160 160,151 162,151 			"/>
		</g>
		<g>
			<polygon points="162,11 160,11 160,2 151,2 151,0 162,0 			"/>
		</g>
	</g>
</g>
<g id="art">
	<g>
		<circle fill="#8F51CC" cx="123.5" cy="98.5" r="12.5"/>
	</g>
	<g>
		<rect x="21" y="91" fill="#E4E5E7" width="35" height="20"/>
	</g>
	<g>
		<rect x="106" y="56" fill="#E4E5E7" width="35" height="14.8"/>
	</g>
	<g>
		<g>
			<rect x="41" y="35" fill="#C4C4C4" width="46" height="2"/>
		</g>
		<g>
			<rect x="41" y="40" fill="#C4C4C4" width="46" height="2"/>
		</g>
		<g>
			<rect x="41" y="45" fill="#C4C4C4" width="46" height="2"/>
		</g>
		<g>
			<rect x="41" y="50" fill="#C4C4C4" width="30" height="2"/>
		</g>
	</g>
	<g>
		<g>
			<rect x="75" y="120" fill="#C4C4C4" width="46" height="2"/>
		</g>
		<g>
			<rect x="75" y="125" fill="#C4C4C4" width="46" height="2"/>
		</g>
		<g>
			<rect x="75" y="130" fill="#C4C4C4" width="46" height="2"/>
		</g>
		<g>
			<rect x="75" y="135" fill="#C4C4C4" width="30" height="2"/>
		</g>
	</g>
	<g>
		<path fill="#C4C4C4" d="M132,152H30V10h81.4L132,30.6V152z M32,150h98V31.4L110.6,12H32V150z"/>
	</g>
	<g>
		<polygon fill="#C4C4C4" points="131,32 110,32 110,11 112,11 112,30 131,30 		"/>
	</g>
	<g>
		<circle fill="#8F51CC" cx="43.5" cy="23.5" r="2.5"/>
	</g>
	<g>
		<circle fill="#E4E5E7" cx="53.5" cy="23.5" r="2.5"/>
	</g>
	<g>
		<circle fill="#8F51CC" cx="63.5" cy="23.5" r="2.5"/>
	</g>
	<g>
		<path d="M81,107c-33.1,0-60.4-25-60.7-25.3L19.5,81l0.8-0.7C20.6,80,47.9,55,81,55s60.4,25,60.7,25.3l0.8,0.7l-0.8,0.7
			C141.4,82,114.1,107,81,107z M22.5,81c4.8,4.1,29.3,24,58.5,24s53.7-19.9,58.5-24c-4.8-4.1-29.3-24-58.5-24S27.3,76.9,22.5,81z"/>
	</g>
	<g>
		<circle fill="#C4C4C4" cx="81" cy="81" r="20"/>
	</g>
	<g>
		<path d="M81,92c-6.1,0-11-4.9-11-11s4.9-11,11-11c6.1,0,11,4.9,11,11S87.1,92,81,92z M81,72c-5,0-9,4-9,9s4,9,9,9c5,0,9-4,9-9
			S86,72,81,72z"/>
	</g>
	<g>
		<path d="M81,87c-3.3,0-6-2.7-6-6s2.7-6,6-6c3.3,0,6,2.7,6,6S84.3,87,81,87z M81,77c-2.2,0-4,1.8-4,4s1.8,4,4,4c2.2,0,4-1.8,4-4
			S83.2,77,81,77z"/>
	</g>
	<g>
		<rect x="80" y="67.9" width="2" height="10.2"/>
	</g>
	<g>
		<rect x="80" y="84" width="2" height="10.2"/>
	</g>
	<g>
		<rect x="67.9" y="80" width="10.2" height="2"/>
	</g>
	<g>
		<rect x="84" y="80" width="10.2" height="2"/>
	</g>
	<g>
		<rect x="41" y="121" fill="#8F51CC" width="25" height="15"/>
	</g>
	<g>
		<rect x="96" y="36" fill="#8F51CC" width="25" height="15"/>
	</g>
</g>
</svg>
