<?xml version="1.0" encoding="utf-8"?>
<!-- Generator: Adobe Illustrator 17.1.0, SVG Export Plug-In . SVG Version: 6.00 Build 0)  -->
<!DOCTYPE svg PUBLIC "-//W3C//DTD SVG 1.1//EN" "http://www.w3.org/Graphics/SVG/1.1/DTD/svg11.dtd">
<svg version="1.1" xmlns="http://www.w3.org/2000/svg" xmlns:xlink="http://www.w3.org/1999/xlink" x="0px" y="0px"
	 viewBox="0 0 162 162" enable-background="new 0 0 162 162" xml:space="preserve">
<g id="titles">
	<g>
		<g>
			<polygon points="2,11 0,11 0,0 11,0 11,2 2,2 			"/>
		</g>
		<g>
			<polygon points="11,162 0,162 0,151 2,151 2,160 11,160 			"/>
		</g>
		<g>
			<polygon points="162,162 151,162 151,160 160,160 160,151 162,151 			"/>
		</g>
		<g>
			<polygon points="162,11 160,11 160,2 151,2 151,0 162,0 			"/>
		</g>
	</g>
</g>
<g id="art">
	<g>
		<g>
			<polygon fill="#C4C4C4" points="137,137 134.5,137 134.5,135 135,135 135,134.5 137,134.5 			"/>
		</g>
		<g>
			<path fill="#C4C4C4" d="M128.4,137h-3.1v-2h3.1V137z M119.2,137h-3.1v-2h3.1V137z M110,137H107v-2h3.1V137z M100.9,137h-3.1v-2
				h3.1V137z M91.7,137h-3.1v-2h3.1V137z M82.5,137h-3.1v-2h3.1V137z M73.4,137h-3.1v-2h3.1V137z M64.2,137h-3.1v-2h3.1V137z
				 M55,137H52v-2H55V137z M45.8,137h-3.1v-2h3.1V137z M36.7,137h-3.1v-2h3.1V137z"/>
		</g>
		<g>
			<polygon fill="#C4C4C4" points="27.5,137 25,137 25,134.5 27,134.5 27,135 27.5,135 			"/>
		</g>
		<g>
			<path fill="#C4C4C4" d="M27,128.4h-2v-3.1h2V128.4z M27,119.2h-2v-3.1h2V119.2z M27,110h-2V107h2V110z M27,100.9h-2v-3.1h2V100.9
				z M27,91.7h-2v-3.1h2V91.7z M27,82.5h-2v-3.1h2V82.5z M27,73.4h-2v-3.1h2V73.4z M27,64.2h-2v-3.1h2V64.2z M27,55h-2V52h2V55z
				 M27,45.8h-2v-3.1h2V45.8z M27,36.7h-2v-3.1h2V36.7z"/>
		</g>
		<g>
			<polygon fill="#C4C4C4" points="27,27.5 25,27.5 25,25 27.5,25 27.5,27 27,27 			"/>
		</g>
		<g>
			<path fill="#C4C4C4" d="M128.4,27h-3.1v-2h3.1V27z M119.2,27h-3.1v-2h3.1V27z M110,27H107v-2h3.1V27z M100.9,27h-3.1v-2h3.1V27z
				 M91.7,27h-3.1v-2h3.1V27z M82.5,27h-3.1v-2h3.1V27z M73.4,27h-3.1v-2h3.1V27z M64.2,27h-3.1v-2h3.1V27z M55,27H52v-2H55V27z
				 M45.8,27h-3.1v-2h3.1V27z M36.7,27h-3.1v-2h3.1V27z"/>
		</g>
		<g>
			<polygon fill="#C4C4C4" points="137,27.5 135,27.5 135,27 134.5,27 134.5,25 137,25 			"/>
		</g>
		<g>
			<path fill="#C4C4C4" d="M137,128.4h-2v-3.1h2V128.4z M137,119.2h-2v-3.1h2V119.2z M137,110h-2V107h2V110z M137,100.9h-2v-3.1h2
				V100.9z M137,91.7h-2v-3.1h2V91.7z M137,82.5h-2v-3.1h2V82.5z M137,73.4h-2v-3.1h2V73.4z M137,64.2h-2v-3.1h2V64.2z M137,55h-2
				V52h2V55z M137,45.8h-2v-3.1h2V45.8z M137,36.7h-2v-3.1h2V36.7z"/>
		</g>
	</g>
	<g>
		<circle fill="#8F51CC" cx="81" cy="81" r="45"/>
	</g>
	<g>
		<path d="M81,117c-19.9,0-36-16.1-36-36s16.1-36,36-36s36,16.1,36,36S100.9,117,81,117z M81,47c-18.7,0-34,15.3-34,34
			s15.3,34,34,34c18.7,0,34-15.3,34-34S99.7,47,81,47z"/>
	</g>
	<g>
		<rect x="21" y="131" fill="#FFFFFF" width="10" height="10"/>
		<path d="M32,142H20v-12h12V142z M22,140h8v-8h-8V140z"/>
	</g>
	<g>
		<rect x="21" y="21" fill="#FFFFFF" width="10" height="10"/>
		<path d="M32,32H20V20h12V32z M22,30h8v-8h-8V30z"/>
	</g>
	<g>
		<rect x="131" y="131" fill="#FFFFFF" width="10" height="10"/>
		<path d="M142,142h-12v-12h12V142z M132,140h8v-8h-8V140z"/>
	</g>
	<g>
		<rect x="131" y="21" fill="#FFFFFF" width="10" height="10"/>
		<path d="M142,32h-12V20h12V32z M132,30h8v-8h-8V30z"/>
	</g>
	<g>
		<g>
			<polygon fill="#FFFFFF" points="115.2,122 122,122 122,115.2 			"/>
			<polygon points="123,123 115.2,123 115.2,121 121,121 121,115.2 123,115.2 			"/>
		</g>
		<g>
			<polygon fill="#FFFFFF" points="46,39.2 39.2,39.2 39.2,46 			"/>
			<polygon points="40.2,46 38.2,46 38.2,38.2 46,38.2 46,40.2 40.2,40.2 			"/>
		</g>
		<g>
			<rect x="23" y="80" transform="matrix(0.7071 0.7071 -0.7071 0.7071 81 -33.5513)" width="116" height="2"/>
		</g>
	</g>
	<g>
		<g>
			<polygon fill="#FFFFFF" points="39.2,115.2 39.2,122 46,122 			"/>
			<polygon points="46,123 38.2,123 38.2,115.2 40.2,115.2 40.2,121 46,121 			"/>
		</g>
		<g>
			<polygon fill="#FFFFFF" points="122,46 122,39.2 115.2,39.2 			"/>
			<polygon points="123,46 121,46 121,40.2 115.2,40.2 115.2,38.2 123,38.2 			"/>
		</g>
		<g>
			<rect x="79.2" y="23" transform="matrix(0.7071 0.7071 -0.7071 0.7071 80.7561 -32.9723)" width="2" height="116"/>
		</g>
	</g>
	<g>
		<circle fill="#FFFFFF" cx="60.7" cy="81" r="2.5"/>
		<path d="M60.8,84.5c-1.9,0-3.5-1.6-3.5-3.5s1.6-3.5,3.5-3.5c1.9,0,3.5,1.6,3.5,3.5S62.7,84.5,60.8,84.5z M60.8,79.5
			c-0.8,0-1.5,0.7-1.5,1.5s0.7,1.5,1.5,1.5c0.8,0,1.5-0.7,1.5-1.5S61.6,79.5,60.8,79.5z"/>
	</g>
	<g>
		<circle fill="#FFFFFF" cx="101.3" cy="81" r="2.5"/>
		<path d="M101.3,84.5c-1.9,0-3.5-1.6-3.5-3.5s1.6-3.5,3.5-3.5c1.9,0,3.5,1.6,3.5,3.5S103.2,84.5,101.3,84.5z M101.3,79.5
			c-0.8,0-1.5,0.7-1.5,1.5s0.7,1.5,1.5,1.5c0.8,0,1.5-0.7,1.5-1.5S102.1,79.5,101.3,79.5z"/>
	</g>
	<g>
		<circle fill="#FFFFFF" cx="81" cy="60.8" r="2.5"/>
		<path d="M81,64.3c-1.9,0-3.5-1.6-3.5-3.5s1.6-3.5,3.5-3.5c1.9,0,3.5,1.6,3.5,3.5S82.9,64.3,81,64.3z M81,59.3
			c-0.8,0-1.5,0.7-1.5,1.5s0.7,1.5,1.5,1.5c0.8,0,1.5-0.7,1.5-1.5S81.8,59.3,81,59.3z"/>
	</g>
	<g>
		<circle fill="#FFFFFF" cx="81" cy="101.3" r="2.5"/>
		<path d="M81,104.8c-1.9,0-3.5-1.6-3.5-3.5s1.6-3.5,3.5-3.5c1.9,0,3.5,1.6,3.5,3.5S82.9,104.8,81,104.8z M81,99.8
			c-0.8,0-1.5,0.7-1.5,1.5s0.7,1.5,1.5,1.5c0.8,0,1.5-0.7,1.5-1.5S81.8,99.8,81,99.8z"/>
	</g>
	<g>
		<circle fill="#FFFFFF" cx="81" cy="148.5" r="2.5"/>
		<path d="M81,152c-1.9,0-3.5-1.6-3.5-3.5s1.6-3.5,3.5-3.5c1.9,0,3.5,1.6,3.5,3.5S82.9,152,81,152z M81,147c-0.8,0-1.5,0.7-1.5,1.5
			s0.7,1.5,1.5,1.5c0.8,0,1.5-0.7,1.5-1.5S81.8,147,81,147z"/>
	</g>
	<g>
		<circle fill="#FFFFFF" cx="81" cy="13.5" r="2.5"/>
		<path d="M81,17c-1.9,0-3.5-1.6-3.5-3.5S79.1,10,81,10c1.9,0,3.5,1.6,3.5,3.5S82.9,17,81,17z M81,12c-0.8,0-1.5,0.7-1.5,1.5
			S80.2,15,81,15c0.8,0,1.5-0.7,1.5-1.5S81.8,12,81,12z"/>
	</g>
</g>
</svg>
